<svg width="25" height="25" viewBox="0 0 25 25" fill="none" xmlns="http://www.w3.org/2000/svg">
<path d="M13.7099 12.4266L17.6199 7.08656C17.9499 6.64656 18.2099 5.84656 18.2099 5.29656L18.2099 2.19656L8.58993 15.3066C7.79528 15.0989 6.95291 15.1773 6.21025 15.5281C5.46759 15.8789 4.87195 16.4797 4.52758 17.2254C4.18321 17.971 4.11204 18.8141 4.32654 19.6069C4.54103 20.3997 5.02752 21.0919 5.70087 21.5622C6.37421 22.0325 7.19151 22.2511 8.00973 22.1796C8.82795 22.1081 9.59497 21.7511 10.1765 21.1711C10.7581 20.5912 11.1172 19.8251 11.1909 19.0071C11.2647 18.1891 11.0484 17.3712 10.5799 16.6966L12.2099 14.4666L13.8399 16.6966C13.3684 17.3694 13.1487 18.1867 13.2192 19.0053C13.2896 19.8238 13.6458 20.5915 14.2254 21.1739C14.8049 21.7563 15.5708 22.1162 16.3891 22.1907C17.2073 22.2651 18.0256 22.0494 18.7008 21.5812C19.3759 21.113 19.8648 20.4222 20.0819 19.6298C20.299 18.8374 20.2304 17.9939 19.8881 17.247C19.5458 16.5001 18.9517 15.8974 18.2097 15.5444C17.4678 15.1915 16.6254 15.1108 15.8299 15.3166L13.7099 12.4166L13.7099 12.4266ZM9.20993 18.6966C9.20993 18.8935 9.17114 19.0886 9.09575 19.2706C9.02037 19.4526 8.90988 19.6179 8.77059 19.7572C8.63131 19.8965 8.46595 20.007 8.28396 20.0824C8.10197 20.1578 7.90692 20.1966 7.70993 20.1966C7.51295 20.1966 7.3179 20.1578 7.13591 20.0824C6.95392 20.007 6.78856 19.8965 6.64927 19.7572C6.50999 19.6179 6.3995 19.4526 6.32411 19.2706C6.24873 19.0886 6.20993 18.8935 6.20993 18.6966C6.20993 18.2987 6.36797 17.9172 6.64927 17.6359C6.93058 17.3546 7.31211 17.1966 7.70993 17.1966C8.10776 17.1966 8.48929 17.3546 8.77059 17.6359C9.0519 17.9172 9.20993 18.2987 9.20993 18.6966ZM18.2099 18.6966C18.2099 19.0944 18.0519 19.4759 17.7706 19.7572C17.4893 20.0385 17.1078 20.1966 16.7099 20.1966C16.3121 20.1966 15.9306 20.0385 15.6493 19.7572C15.368 19.4759 15.2099 19.0944 15.2099 18.6966C15.2099 18.2987 15.368 17.9172 15.6493 17.6359C15.9306 17.3546 16.3121 17.1966 16.7099 17.1966C17.1078 17.1966 17.4893 17.3546 17.7706 17.6359C18.0519 17.9172 18.2099 18.2987 18.2099 18.6966ZM6.79993 7.09656C6.44295 6.56151 6.23894 5.9391 6.20993 5.29656L6.20993 2.19656L11.7099 9.69656L10.2099 11.7466L6.79993 7.09656Z" fill="#62AAD7"/>
</svg>
