<svg width="24" height="24" viewBox="0 0 24 24" fill="none" xmlns="http://www.w3.org/2000/svg">
<path d="M20.1712 3.18823H18.6088V2.37153C18.6088 1.94542 18.2537 1.59033 17.8276 1.59033C17.4015 1.59033 17.0464 1.94542 17.0464 2.37153V3.18823H7.2105V2.37153C7.2105 1.94542 6.85541 1.59033 6.4293 1.59033C6.0032 1.59033 5.64811 1.94542 5.64811 2.37153V3.18823H4.05021C2.70087 3.18823 1.6001 4.289 1.6001 5.63834V15.5098C1.6001 16.8591 2.70087 17.9599 4.05021 17.9599H12.016C12.4421 17.9599 12.7972 17.6048 12.7972 17.1787C12.7972 16.7526 12.4421 16.3975 12.016 16.3975H4.05021C3.58859 16.3975 3.198 16.0069 3.198 15.5453V9.33126H21.0589V13.0597C21.0589 13.4858 21.414 13.8409 21.8401 13.8409C22.2663 13.8409 22.6213 13.4858 22.6213 13.0597V5.60283C22.6213 4.289 21.5206 3.18823 20.1712 3.18823ZM3.16249 7.73336V5.60283C3.16249 5.14122 3.55308 4.75062 4.0147 4.75062H5.57709V5.10571C5.57709 5.53181 5.93218 5.8869 6.35828 5.8869C6.78439 5.8869 7.13948 5.53181 7.13948 5.10571V4.75062H16.9399V5.10571C16.9399 5.53181 17.295 5.8869 17.7211 5.8869C18.1472 5.8869 18.5023 5.53181 18.5023 5.10571V4.75062H20.0647C20.5263 4.75062 20.9169 5.14122 20.9169 5.60283V7.73336H3.16249Z" fill="#78828A" stroke="#78828A" stroke-width="0.4"/>
<path d="M18.4548 13.5569C15.9337 13.5569 13.9097 15.5809 13.9097 18.102C13.9097 20.6231 15.9337 22.6472 18.4548 22.6472C20.9759 22.6472 22.9999 20.6231 22.9999 18.102C22.9999 15.5809 20.9404 13.5569 18.4548 13.5569ZM18.4548 21.0493C16.8214 21.0493 15.5076 19.7354 15.5076 18.102C15.5076 16.4686 16.8214 15.1548 18.4548 15.1548C20.0882 15.1548 21.402 16.4686 21.402 18.102C21.402 19.7354 20.0882 21.0493 18.4548 21.0493Z" fill="#78828A"/>
<path d="M19.556 17.2852H17.3544C16.9283 17.2852 16.5732 17.6402 16.5732 18.0664C16.5732 18.4925 16.9283 18.8475 17.3544 18.8475H19.556C19.9821 18.8475 20.3372 18.4925 20.3372 18.0664C20.3372 17.6402 19.9821 17.2852 19.556 17.2852Z" fill="#78828A"/>
</svg>
