<svg width="24" height="24" viewBox="0 0 24 24" fill="none" xmlns="http://www.w3.org/2000/svg">
<path d="M12 14C12.5304 14 13.0391 13.7893 13.4142 13.4142C13.7893 13.0391 14 12.5304 14 12C14 11.4696 13.7893 10.9609 13.4142 10.5858C13.0391 10.2107 12.5304 10 12 10C11.4696 10 10.9609 10.2107 10.5858 10.5858C10.2107 10.9609 10 11.4696 10 12C10 12.5304 10.2107 13.0391 10.5858 13.4142C10.9609 13.7893 11.4696 14 12 14Z" fill="black"/>
<path fill-rule="evenodd" clip-rule="evenodd" d="M2.3999 12C3.6739 7.943 7.4639 5 11.9419 5C16.4199 5 20.2099 7.943 21.4839 12C20.2099 16.057 16.4199 19 11.9419 19C7.4639 19 3.6739 16.057 2.3999 12ZM15.9419 12C15.9419 13.0609 15.5205 14.0783 14.7703 14.8284C14.0202 15.5786 13.0028 16 11.9419 16C10.881 16 9.86362 15.5786 9.11347 14.8284C8.36333 14.0783 7.9419 13.0609 7.9419 12C7.9419 10.9391 8.36333 9.92172 9.11347 9.17157C9.86362 8.42143 10.881 8 11.9419 8C13.0028 8 14.0202 8.42143 14.7703 9.17157C15.5205 9.92172 15.9419 10.9391 15.9419 12Z" fill="black"/>
</svg>
