<svg width="36" height="36" viewBox="0 0 36 36" fill="none" xmlns="http://www.w3.org/2000/svg">
<path d="M18 21C18.7956 21 19.5587 20.6839 20.1213 20.1213C20.6839 19.5587 21 18.7956 21 18C21 17.2044 20.6839 16.4413 20.1213 15.8787C19.5587 15.3161 18.7956 15 18 15C17.2044 15 16.4413 15.3161 15.8787 15.8787C15.3161 16.4413 15 17.2044 15 18C15 18.7956 15.3161 19.5587 15.8787 20.1213C16.4413 20.6839 17.2044 21 18 21Z" fill="white"/>
<path fill-rule="evenodd" clip-rule="evenodd" d="M3.6001 18C5.5111 11.9145 11.1961 7.5 17.9131 7.5C24.6301 7.5 30.3151 11.9145 32.2261 18C30.3151 24.0855 24.6301 28.5 17.9131 28.5C11.1961 28.5 5.5111 24.0855 3.6001 18ZM23.9131 18C23.9131 19.5913 23.281 21.1174 22.1557 22.2426C21.0305 23.3679 19.5044 24 17.9131 24C16.3218 24 14.7957 23.3679 13.6705 22.2426C12.5452 21.1174 11.9131 19.5913 11.9131 18C11.9131 16.4087 12.5452 14.8826 13.6705 13.7574C14.7957 12.6321 16.3218 12 17.9131 12C19.5044 12 21.0305 12.6321 22.1557 13.7574C23.281 14.8826 23.9131 16.4087 23.9131 18Z" fill="white"/>
</svg>
