<svg width="24" height="24" viewBox="0 0 24 24" fill="none" xmlns="http://www.w3.org/2000/svg">
<path fill-rule="evenodd" clip-rule="evenodd" d="M11.542 18C7.62522 18 4.28951 15.4964 3.05401 12C4.28951 8.50359 7.62522 6 11.542 6C15.4597 6 18.7945 8.50354 20.03 12C18.7945 15.4965 15.4597 18 11.542 18ZM11.542 4C6.61577 4 2.44708 7.23851 1.04594 11.7004C0.984688 11.8954 0.984688 12.1046 1.04594 12.2996C2.44708 16.7615 6.61577 20 11.542 20C16.4693 20 20.6369 16.7614 22.0381 12.2996C22.0993 12.1046 22.0993 11.8954 22.0381 11.7004C20.6369 7.23856 16.4693 4 11.542 4ZM10.1278 10.5858C10.5029 10.2107 11.0116 10 11.542 10C12.0724 10 12.5811 10.2107 12.9562 10.5858C13.3313 10.9609 13.542 11.4696 13.542 12C13.542 12.5304 13.3313 13.0391 12.9562 13.4142C12.5811 13.7893 12.0724 14 11.542 14C11.0116 14 10.5029 13.7893 10.1278 13.4142C9.75271 13.0391 9.54199 12.5304 9.54199 12C9.54199 11.4696 9.75271 10.9609 10.1278 10.5858ZM11.542 8C10.4811 8 9.46371 8.42143 8.71356 9.17157C7.96342 9.92172 7.54199 10.9391 7.54199 12C7.54199 13.0609 7.96342 14.0783 8.71356 14.8284C9.46371 15.5786 10.4811 16 11.542 16C12.6029 16 13.6203 15.5786 14.3704 14.8284C15.1206 14.0783 15.542 13.0609 15.542 12C15.542 10.9391 15.1206 9.92172 14.3704 9.17157C13.6203 8.42143 12.6029 8 11.542 8Z" fill="#62AAD7"/>
</svg>
