<svg width="24" height="24" viewBox="0 0 24 24" fill="none" xmlns="http://www.w3.org/2000/svg">
<path d="M23.3219 19.8375L18.8219 15.3375L7.30938 3.8625C6.74688 3.3 5.99688 3 5.20938 3C4.42188 3 3.67188 3.3 3.10938 3.8625L1.87187 5.1C0.709375 6.2625 0.709375 8.175 1.87187 9.3375L13.3844 20.85C13.5344 21 13.7594 21.1125 13.9844 21.1125C14.2094 21.1125 14.4344 21.0375 14.5844 20.85L15.1469 20.2875L16.4594 21.525C16.6094 21.675 16.8344 21.75 17.0219 21.75H22.5719C23.0594 21.75 23.4719 21.45 23.6219 21C23.7719 20.5875 23.6219 20.1375 23.3219 19.8375ZM3.07188 6.3L4.30938 5.0625C4.53438 4.8375 4.87188 4.6875 5.20938 4.6875C5.54688 4.6875 5.88438 4.8375 6.10938 5.0625L6.97188 5.925L3.89687 9L3.03437 8.1375C2.54687 7.65 2.54688 6.825 3.07188 6.3ZM5.09688 10.2L6.03438 9.2625L8.65938 11.8875C8.80938 12.0375 9.03438 12.15 9.25937 12.15C9.48438 12.15 9.70938 12.075 9.85938 11.8875C10.1969 11.55 10.1969 11.025 9.85938 10.6875L7.23438 8.0625L8.17188 7.125L17.0594 16.0125L13.9844 19.0875L5.09688 10.2ZM17.3594 20.0625L16.3469 19.0875L18.2594 17.175L21.1469 20.0625H17.3594Z" fill="white"/>
</svg>
