<svg width="17" height="17" viewBox="0 0 17 17" fill="none" xmlns="http://www.w3.org/2000/svg">
<circle cx="8.5" cy="8.5" r="8.5" fill="#153751"/>
<path d="M13.6889 12.0922L11.6264 10.0297L6.34981 4.77031C6.09199 4.5125 5.74824 4.375 5.3873 4.375C5.02637 4.375 4.68262 4.5125 4.4248 4.77031L3.85762 5.3375C3.3248 5.87031 3.3248 6.74688 3.85762 7.27969L9.13418 12.5562C9.20293 12.625 9.30606 12.6766 9.40918 12.6766C9.51231 12.6766 9.61543 12.6422 9.68418 12.5562L9.94199 12.2984L10.5436 12.8656C10.6123 12.9344 10.7154 12.9688 10.8014 12.9688H13.3451C13.5686 12.9688 13.7576 12.8313 13.8264 12.625C13.8951 12.4359 13.8264 12.2297 13.6889 12.0922ZM4.40762 5.8875L4.9748 5.32031C5.07793 5.21719 5.23262 5.14844 5.3873 5.14844C5.54199 5.14844 5.69668 5.21719 5.7998 5.32031L6.19512 5.71563L4.78574 7.125L4.39043 6.72969C4.16699 6.50625 4.16699 6.12813 4.40762 5.8875ZM5.33574 7.675L5.76543 7.24531L6.96856 8.44844C7.03731 8.51719 7.14043 8.56875 7.24356 8.56875C7.34668 8.56875 7.44981 8.53438 7.51856 8.44844C7.67324 8.29375 7.67324 8.05312 7.51856 7.89844L6.31543 6.69531L6.74512 6.26562L10.8186 10.3391L9.40918 11.7484L5.33574 7.675ZM10.9561 12.1953L10.492 11.7484L11.3686 10.8719L12.692 12.1953H10.9561Z" fill="white"/>
</svg>
