<svg width="25" height="25" viewBox="0 0 25 25" fill="none" xmlns="http://www.w3.org/2000/svg">
<path d="M12.5289 20.7179C12.2739 20.7179 12.0188 20.6217 11.8275 20.4615C11.0941 19.8204 10.3607 19.2115 9.72304 18.6666C7.8737 17.0961 6.24755 15.7179 5.13157 14.3717C3.85616 12.8333 3.28223 11.423 3.28223 9.85249C3.28223 8.34608 3.79239 6.93582 4.74895 5.91018C5.7055 4.88454 7.0128 4.30762 8.44763 4.30762C9.49984 4.30762 10.4883 4.66018 11.3492 5.30121C11.6999 5.55762 11.9869 5.87813 12.2739 6.23069C12.4014 6.39095 12.6246 6.39095 12.7521 6.23069C13.0391 5.87813 13.358 5.58967 13.6768 5.30121C14.5377 4.62813 15.5261 4.30762 16.5784 4.30762C18.0132 4.30762 19.3205 4.88454 20.277 5.91018C21.2336 6.93582 21.7438 8.34608 21.7438 9.85249C21.7438 11.423 21.1698 12.8333 19.8944 14.3397C18.7784 15.6858 17.1523 17.064 15.303 18.6345C14.6652 19.1794 13.9319 19.7884 13.1985 20.4294C13.0391 20.6217 12.784 20.7179 12.5289 20.7179Z" fill="white"/>
</svg>
