<svg width="25" height="25" viewBox="0 0 25 25" fill="none" xmlns="http://www.w3.org/2000/svg">
<path fill-rule="evenodd" clip-rule="evenodd" d="M8.50971 3.95508C6.98083 3.95508 5.54293 4.576 4.51134 5.69488L4.51112 5.69511C3.51212 6.78148 2.95508 8.26538 2.95508 9.83471C2.95508 11.4788 3.58266 12.9257 4.83009 14.4382L4.83009 14.4382L4.83136 14.4397C5.75648 15.5435 7.02585 16.6226 8.45625 17.8386L8.45626 17.8386L8.45642 17.8387C8.66515 18.0162 8.8773 18.1965 9.09232 18.3803L9.09426 18.3819C9.65884 18.8546 10.2831 19.3867 10.9672 19.978C11.31 20.2841 11.7558 20.4551 12.2051 20.4551C12.6484 20.4551 13.0969 20.288 13.4156 19.9762C13.8622 19.6093 14.2976 19.2412 14.7022 18.8992L14.7023 18.8991L14.7026 18.8989C14.9166 18.7179 15.1221 18.5442 15.3159 18.3819L15.3715 18.3354L15.3716 18.3354C17.0416 16.9372 18.5298 15.6912 19.5785 14.4401C20.8591 12.9242 21.4551 11.4765 21.4551 9.83471C21.4551 8.26938 20.9303 6.78321 19.8976 5.69358C18.8667 4.57608 17.4593 3.95508 15.9004 3.95508C14.7118 3.95508 13.646 4.32948 12.7102 5.04251C12.5292 5.17759 12.3654 5.3278 12.2116 5.47706C12.0476 5.31414 11.8803 5.177 11.6999 5.04247C10.7634 4.32898 9.66775 3.95508 8.50971 3.95508ZM8.50971 5.78841C7.47779 5.78841 6.53042 6.20307 5.8319 6.9235C5.16482 7.67166 4.79614 8.7047 4.79614 9.83471C4.79614 10.9755 5.24116 12.0761 6.2274 13.2588C7.19466 14.3951 8.6065 15.5951 10.2504 16.9918C10.8154 17.4649 11.4686 18.0257 12.1506 18.6153C12.1804 18.6338 12.2298 18.6338 12.2596 18.6153C12.5549 18.36 12.8405 18.1192 13.1148 17.888C13.4833 17.5773 13.8312 17.2839 14.1548 16.9961L14.1588 16.9925L14.1588 16.9926C14.2966 16.8751 14.4326 16.7595 14.5667 16.6454L14.5669 16.6452L14.5669 16.6452C16.065 15.371 17.3221 14.3017 18.1811 13.2608L18.182 13.2598C19.1688 12.0767 19.614 10.9758 19.614 9.83471C19.614 8.70666 19.2168 7.67304 18.5486 6.95319C17.85 6.20308 16.9026 5.78841 15.9004 5.78841C15.1552 5.78841 14.4617 6.03425 13.8449 6.47938C13.5947 6.67327 13.3689 6.89705 13.1379 7.15532C12.9194 7.4078 12.5861 7.59582 12.2051 7.59582C11.8268 7.59582 11.5229 7.43972 11.273 7.15618C11.0411 6.89678 10.8144 6.67217 10.563 6.47767C9.97949 6.03593 9.28749 5.78841 8.50971 5.78841Z" fill="white"/>
</svg>
