<svg width="17" height="17" viewBox="0 0 17 17" fill="none" xmlns="http://www.w3.org/2000/svg">
<circle cx="8.5" cy="8.5" r="8.5" fill="#153751"/>
<path d="M8.50712 12.1668C8.39313 12.1668 8.27915 12.1239 8.19365 12.0522C7.86593 11.7658 7.53821 11.4937 7.25324 11.2502C6.42681 10.5483 5.70013 9.93245 5.20142 9.33089C4.63148 8.64339 4.375 8.01318 4.375 7.31136C4.375 6.63818 4.60298 6.00798 5.03044 5.54964C5.4579 5.09131 6.0421 4.8335 6.68329 4.8335C7.1535 4.8335 7.59521 4.99105 7.97992 5.27751C8.13666 5.39209 8.2649 5.53532 8.39314 5.69287C8.45013 5.76449 8.54987 5.76449 8.60687 5.69287C8.7351 5.53532 8.87759 5.40641 9.02008 5.27751C9.40479 4.97673 9.8465 4.8335 10.3167 4.8335C10.9579 4.8335 11.5421 5.09131 11.9696 5.54964C12.397 6.00798 12.625 6.63818 12.625 7.31136C12.625 8.01318 12.3685 8.64339 11.7986 9.31657C11.2999 9.91813 10.5732 10.534 9.74676 11.2358C9.46179 11.4793 9.13407 11.7515 8.80635 12.0379C8.7351 12.1239 8.62111 12.1668 8.50712 12.1668Z" fill="white"/>
</svg>
