<svg width="17" height="17" viewBox="0 0 17 17" fill="none" xmlns="http://www.w3.org/2000/svg">
<circle cx="8.5" cy="8.5" r="8.5" fill="#153751"/>
<g clip-path="url(#clip0_1492_3983)">
<path d="M13.3756 9.40081L12.7053 8.98831C12.5334 8.86799 12.2928 8.93674 12.1725 9.10862C12.0521 9.29768 12.1209 9.52112 12.2928 9.64143L12.7396 9.93362L8.66621 12.4946L4.57559 9.93362L5.02246 9.64143C5.21152 9.52112 5.26309 9.28049 5.14277 9.10862C5.02246 8.91956 4.78184 8.86799 4.60996 8.98831L3.93965 9.40081C3.76777 9.52112 3.64746 9.71018 3.64746 9.91643C3.64746 10.1227 3.75059 10.3289 3.93965 10.4321L8.33965 13.1992C8.44277 13.268 8.5459 13.2852 8.66621 13.2852C8.78652 13.2852 8.88965 13.2508 8.99277 13.1992L13.3756 10.4492C13.5475 10.3289 13.6678 10.1399 13.6678 9.93362C13.6678 9.72737 13.5646 9.52112 13.3756 9.40081Z" fill="white"/>
<path d="M9.26718 9.0914L8.66562 9.45234L8.06406 9.07421C7.875 8.9539 7.65156 9.02265 7.53125 9.19453C7.41093 9.38359 7.47968 9.60703 7.65156 9.72734L8.45937 10.2258C8.52812 10.2602 8.59687 10.2773 8.66562 10.2773C8.73437 10.2773 8.80312 10.2602 8.87187 10.2258L9.67968 9.72734C9.86875 9.60703 9.92031 9.3664 9.8 9.19453C9.67968 9.02265 9.43906 8.97109 9.26718 9.0914Z" fill="white"/>
<path d="M5.48581 8.36953L6.62019 9.0914C6.68894 9.12578 6.75769 9.14296 6.82644 9.14296C6.94675 9.14296 7.08425 9.07421 7.153 8.9539C7.27331 8.76484 7.20456 8.5414 7.03269 8.42109L5.89831 7.69921C5.70925 7.5789 5.48581 7.64765 5.3655 7.81953C5.24519 8.02578 5.29675 8.2664 5.48581 8.36953Z" fill="white"/>
<path d="M4.66113 7.78518C4.78145 7.78518 4.91895 7.71643 4.9877 7.59612C5.10801 7.40706 5.03926 7.18362 4.86738 7.06331L4.59238 6.89143L4.86738 6.71955C5.05645 6.59924 5.10801 6.35862 4.9877 6.18674C4.86738 5.99768 4.62676 5.94612 4.45488 6.06643L3.64707 6.56487C3.52676 6.63362 3.45801 6.75393 3.45801 6.89143C3.45801 7.02893 3.52676 7.14924 3.64707 7.21799L4.45488 7.71643C4.50645 7.76799 4.5752 7.78518 4.66113 7.78518Z" fill="white"/>
<path d="M5.69206 6.11799C5.76081 6.11799 5.82956 6.1008 5.89831 6.06643L7.03269 5.34456C7.22175 5.22424 7.27331 4.98362 7.153 4.81174C7.03269 4.62268 6.79206 4.57112 6.62019 4.69143L5.48581 5.41331C5.29675 5.53362 5.24519 5.77424 5.3655 5.94612C5.43425 6.04924 5.55456 6.11799 5.69206 6.11799Z" fill="white"/>
<path d="M8.06433 4.69146L8.66589 4.31333L9.26746 4.69146C9.33621 4.72583 9.40496 4.74302 9.47371 4.74302C9.59402 4.74302 9.73152 4.67427 9.80027 4.55396C9.92058 4.36489 9.85183 4.14146 9.67996 4.02114L8.87214 3.52271C8.75183 3.43677 8.57996 3.43677 8.45964 3.52271L7.65183 4.02114C7.46277 4.14146 7.41121 4.38208 7.53152 4.55396C7.65183 4.72583 7.89246 4.81177 8.06433 4.69146Z" fill="white"/>
<path d="M10.2983 5.34462L11.4327 6.0665C11.5014 6.10087 11.5702 6.11806 11.6389 6.11806C11.7593 6.11806 11.8968 6.04931 11.9655 5.929C12.0858 5.73994 12.0171 5.5165 11.8452 5.39619L10.7108 4.67431C10.5389 4.554 10.2983 4.62275 10.178 4.79462C10.0577 4.98369 10.1093 5.22431 10.2983 5.34462Z" fill="white"/>
<path d="M13.6846 6.56484L12.8768 6.0664C12.705 5.94609 12.4643 6.01484 12.344 6.18671C12.2237 6.37578 12.2925 6.59921 12.4643 6.71953L12.7393 6.8914L12.4643 7.06328C12.2753 7.18359 12.2237 7.42421 12.344 7.59609C12.4128 7.7164 12.5503 7.78515 12.6706 7.78515C12.7393 7.78515 12.8081 7.76796 12.8768 7.73359L13.6846 7.23515C13.805 7.1664 13.8737 7.04609 13.8737 6.90859C13.8737 6.77109 13.805 6.63359 13.6846 6.56484Z" fill="white"/>
<path d="M10.5046 9.14314C10.5733 9.14314 10.6421 9.12595 10.7108 9.09158L11.8452 8.3697C12.0343 8.24939 12.0858 8.00876 11.9655 7.83689C11.8452 7.64783 11.6046 7.59626 11.4327 7.71658L10.2983 8.43845C10.1093 8.55876 10.0577 8.79939 10.178 8.97126C10.2468 9.09158 10.3671 9.14314 10.5046 9.14314Z" fill="white"/>
</g>
<defs>
<clipPath id="clip0_1492_3983">
<rect width="11" height="11" fill="white" transform="translate(3 3)"/>
</clipPath>
</defs>
</svg>
